<svg xmlns="http://www.w3.org/2000/svg" xmlns:xlink="http://www.w3.org/1999/xlink" width="500" zoomAndPan="magnify" viewBox="0 0 375 374.999991" height="500" preserveAspectRatio="xMidYMid meet" version="1.0"><path fill="#3fa7ef" d="M 375.015625 187.511719 C 375.015625 160.347656 359.125 136.902344 336.136719 125.949219 C 344.644531 101.945312 339.300781 74.132812 320.097656 54.925781 C 300.886719 35.71875 273.074219 30.378906 249.074219 38.886719 C 238.117188 15.898438 214.671875 0.0078125 187.511719 0.0078125 C 160.347656 0.0078125 136.902344 15.898438 125.949219 38.886719 C 101.945312 30.378906 74.132812 35.71875 54.925781 54.925781 C 35.71875 74.132812 30.378906 101.945312 38.882812 125.949219 C 15.898438 136.902344 0.0078125 160.347656 0.0078125 187.511719 C 0.0078125 214.671875 15.898438 238.117188 38.886719 249.074219 C 30.378906 273.074219 35.722656 300.890625 54.925781 320.097656 C 74.132812 339.304688 101.945312 344.644531 125.949219 336.136719 C 136.902344 359.125 160.347656 375.015625 187.511719 375.015625 C 214.671875 375.015625 238.117188 359.125 249.074219 336.136719 C 273.074219 344.644531 300.890625 339.304688 320.097656 320.097656 C 339.304688 300.886719 344.644531 273.074219 336.136719 249.074219 C 359.125 238.117188 375.015625 214.671875 375.015625 187.511719 Z M 375.015625 187.511719 " fill-opacity="1" fill-rule="nonzero"/><path fill="#ffffff" d="M 161.085938 259.550781 L 98.671875 193.066406 L 124.015625 169.273438 L 161.878906 209.601562 L 256.003906 115.472656 L 280.585938 140.054688 Z M 161.085938 259.550781 " fill-opacity="1" fill-rule="nonzero"/></svg>